<svg width="840" height="926" viewBox="0 0 840 926" fill="none" xmlns="http://www.w3.org/2000/svg">
<g clip-path="url(#clip0)">
<rect width="840" height="926" fill="white"/>
<path d="M765.019 489.568L261.133 321.658L174.957 641.304L678.844 809.214L765.019 489.568Z" fill="#F2F2F2"/>
<path d="M679.231 813.244L0 580.884L160.769 0L840 232.359L679.231 813.244ZM3.76086 578.752L677.199 809.13L836.239 234.492L162.801 4.11391L3.76086 578.752Z" fill="#3F3D56"/>
<path d="M432.377 194.333H244.817V430.981H432.377V194.333Z" fill="#2F2E41"/>
<path d="M537.333 896.624H264.141V783.983C264.186 757.534 268.418 731.3 276.642 706.482C277.059 705.215 277.475 703.968 277.909 702.721C290.013 667.742 305.753 647.205 305.753 647.205C416.115 715.594 483.057 653.239 483.057 653.239L495.034 706.945L495.902 710.847L527.762 853.7L528.631 857.622L537.333 896.624Z" fill="#2F2E41"/>
<path d="M495.889 710.833C454.783 721.956 418.363 725.778 387.661 725.778C368.548 725.826 349.46 724.259 330.561 721.091C312.224 718.033 294.173 713.139 276.628 706.468C277.044 705.201 277.46 703.954 277.895 702.707C295.273 709.312 313.155 714.146 331.321 717.149C368.646 723.505 424.949 725.878 495.021 706.931L495.889 710.833Z" fill="#3F3D56"/>
<path d="M528.629 857.624C473.973 876.632 426.282 882.686 387.674 882.686C368.561 882.735 349.474 881.168 330.575 878C299.493 872.669 276.823 863.96 264.141 858.147V853.782C276.28 859.495 299.239 868.586 331.335 874.057C374.304 881.379 442.439 883.41 527.761 853.702L528.629 857.624Z" fill="#3F3D56"/>
<path d="M536.429 388.718L497.911 462.659V462.679L496.627 465.153L407.975 553.657L299.422 471.188L252.383 404.81C252.383 404.81 259.62 378.661 284.949 374.638C291.625 373.572 297.288 372.526 302.444 371.319C305.954 370.495 309.228 369.61 312.431 368.604C322.363 365.486 331.536 361.242 344.653 354.524C368.173 342.455 337.416 304.237 337.416 304.237L400.738 259.985C400.738 259.985 428.854 361.564 478.155 360.658C478.878 360.658 479.602 360.618 480.344 360.558C483.058 360.337 485.645 360.236 488.105 360.216C531.563 359.894 536.429 388.718 536.429 388.718Z" fill="#FFB8B8"/>
<path d="M315.684 445.049L302.422 371.33C305.932 370.505 309.206 369.62 312.409 368.614L315.684 445.049Z" fill="#3F3D56"/>
<path d="M488.111 360.227L475.826 433.986L478.16 360.669C478.884 360.669 479.608 360.629 480.349 360.569C483.063 360.347 485.65 360.247 488.111 360.227Z" fill="#3F3D56"/>
<path d="M341.048 312.297C379.018 312.297 409.799 278.076 409.799 235.862C409.799 193.648 379.018 159.427 341.048 159.427C303.079 159.427 272.298 193.648 272.298 235.862C272.298 278.076 303.079 312.297 341.048 312.297Z" fill="#FFB8B8"/>
<path d="M263.229 392.758L252.374 404.827C252.374 404.827 236.091 567.754 252.374 646.201L328.361 863.437C328.361 863.437 348.262 939.872 391.683 923.78C435.104 907.689 355.499 819.185 355.499 819.185L299.413 648.212V434.999L263.229 392.758Z" fill="#FFB8B8"/>
<path d="M509.279 370.626L536.417 388.729C536.417 388.729 559.937 479.244 540.036 603.953L509.279 841.303C509.279 841.303 491.187 931.818 453.194 909.692C415.201 887.566 478.523 813.143 478.523 813.143L494.806 628.09L498.424 434.992L509.279 370.626Z" fill="#FFB8B8"/>
<path d="M398.919 509.407L313.885 430.961L295.793 479.235C295.793 479.235 277.701 680.379 292.175 676.356C306.649 672.334 308.458 654.231 321.122 668.311C333.787 682.391 413.393 702.505 424.248 690.437C435.103 678.368 487.571 660.265 487.571 660.265C487.571 660.265 509.282 642.162 502.045 618.025C494.808 593.887 502.045 589.865 503.854 579.807C505.663 569.75 503.854 463.144 503.854 463.144L478.525 414.869L398.919 509.407Z" fill="#FE6150"/>
<path d="M401.18 375.709C417.24 373.491 431.168 362.142 442.576 341.976L439.513 339.835C428.716 358.92 415.675 369.646 400.754 371.715C374.239 375.389 350.322 350.396 350.083 350.144L347.585 353.054C348.535 354.063 369.63 376.115 395.24 376.115C395.256 376.115 395.273 376.113 395.289 376.113V407.944C393.061 408.195 390.996 409.356 389.494 411.203C387.993 413.05 387.161 415.45 387.16 417.94C387.159 420.43 387.989 422.831 389.49 424.679C390.991 426.527 393.055 427.69 395.283 427.942C397.511 428.195 399.743 427.519 401.549 426.046C403.354 424.573 404.603 422.408 405.055 419.969C405.506 417.53 405.127 414.992 403.991 412.847C402.856 410.701 401.044 409.1 398.908 408.355V375.942C399.663 375.879 400.419 375.814 401.18 375.709Z" fill="#6C63FF"/>
<path d="M338.301 104.121C338.301 104.121 268.732 113.791 253.157 160.451C237.582 207.111 210.326 231.608 210.326 231.608C210.326 231.608 167.391 264.788 188.858 324.021C188.858 324.021 122.068 373.921 166.197 418.248C166.197 418.248 163.601 462.575 189.559 492.904C189.559 492.904 210.326 504.569 202.538 511.568C194.751 518.567 254.455 513.901 249.263 450.91C244.072 387.919 279.116 343.547 279.116 343.547C279.116 343.547 245.37 261.877 260.945 233.881C270.401 216.883 274.462 204.208 282.312 196.872C286.683 192.884 290.738 188.485 294.43 183.723C299.264 177.338 309.049 168.641 324.543 173.283C331.154 175.165 337.276 178.746 342.416 183.737C357.935 199.047 374.729 212.681 392.571 224.454C400.961 229.99 409.748 236.245 417.907 242.911C433.014 255.254 420.533 281.414 405.428 303.314C383.079 335.717 382.637 381.236 406.013 412.73C406.7 413.655 407.4 414.563 408.115 415.453C430.972 443.911 401.528 468.718 399.822 471.907C395.928 479.188 380.378 525.159 444.612 525.363C444.612 525.363 459.526 490.571 480.292 469.574C501.059 448.577 485.484 387.919 485.484 387.919C485.484 387.919 516.634 366.922 482.888 315.596C482.888 315.596 500.738 253.125 472.184 222.796C472.184 222.796 426.559 87.79 338.301 104.121Z" fill="#2F2E41"/>
<path d="M416.103 252.968C421.099 252.968 425.148 246.214 425.148 237.882C425.148 229.55 421.099 222.796 416.103 222.796C411.107 222.796 407.058 229.55 407.058 237.882C407.058 246.214 411.107 252.968 416.103 252.968Z" fill="#FFB8B8"/>
<path d="M416.984 301.28C406.485 301.28 397.943 289.077 397.943 274.077C397.943 259.077 406.485 246.873 416.984 246.873C417.235 246.873 417.476 246.984 417.654 247.182C417.832 247.38 417.932 247.648 417.932 247.928C417.932 248.207 417.832 248.476 417.654 248.674C417.476 248.871 417.235 248.982 416.984 248.982C407.531 248.982 399.841 260.24 399.841 274.077C399.841 287.914 407.531 299.171 416.984 299.171C426.436 299.171 434.127 287.914 434.127 274.077C434.127 261.741 430.149 252.717 423.485 249.938C423.25 249.839 423.06 249.64 422.956 249.386C422.852 249.131 422.844 248.842 422.932 248.58C423.02 248.319 423.198 248.107 423.427 247.991C423.656 247.875 423.916 247.865 424.152 247.962C431.586 251.063 436.024 260.825 436.024 274.077C436.024 289.077 427.483 301.28 416.984 301.28Z" fill="#6C63FF"/>
<path d="M424.674 242.758C424.113 246.068 422.562 249.07 420.273 251.277Z" fill="#FFB8B8"/>
<path d="M357.147 818.412L319.693 838.917L320.605 840.975L358.059 820.471L357.147 818.412Z" fill="#6C63FF"/>
<path d="M339.065 837.799C343.622 837.799 347.316 833.691 347.316 828.625C347.316 823.558 343.622 819.451 339.065 819.451C334.508 819.451 330.813 823.558 330.813 828.625C330.813 833.691 334.508 837.799 339.065 837.799Z" fill="#6C63FF"/>
<path d="M678.468 812.932C642.492 790.635 620.095 760.193 611.9 722.453C605.816 694.432 607.564 662.901 617.097 628.734C624.164 603.544 634.759 579.75 648.493 558.229C721.351 443.572 727.927 368.862 720.614 326.377C712.596 279.794 686.544 260.448 686.282 260.258L687.407 258.335C687.676 258.529 714.413 278.325 722.624 325.854C727.358 353.254 725.131 384.498 716.005 418.716C704.647 461.303 682.5 508.687 650.178 559.552C636.569 580.877 626.07 604.453 619.067 629.413C603.432 685.45 601.22 762.429 679.472 810.93L678.468 812.932Z" fill="#2F2E41"/>
<path d="M612.764 600.603C584.401 583.026 585.191 555.169 590.848 534.896C593.356 525.954 597.117 517.507 601.992 509.868C627.517 469.701 629.823 443.607 627.264 428.79C624.484 412.701 615.566 406.096 615.476 406.031L616.6 404.108C616.997 404.394 626.346 411.319 629.29 428.358C633.123 450.545 624.506 478.414 603.677 511.192C598.927 518.634 595.262 526.863 592.818 535.574C587.387 555.038 586.614 581.772 613.768 598.601L612.764 600.603Z" fill="#2F2E41"/>
<path d="M740.335 346.046L739.331 344.042C766.486 327.213 765.712 300.479 760.281 281.016C757.837 272.304 754.173 264.075 749.422 256.633C728.594 223.855 719.977 195.986 723.81 173.799C726.754 156.76 736.103 149.834 736.499 149.548L737.625 151.47C737.535 151.536 728.571 158.228 725.82 174.322C723.289 189.13 725.62 215.201 751.108 255.309C755.982 262.948 759.743 271.394 762.252 280.336C767.908 300.61 768.698 328.467 740.335 346.046Z" fill="#2F2E41"/>
<path d="M800.921 231.962C796.435 239.599 789.404 244.943 781.376 246.818C773.347 248.694 764.976 246.948 758.105 241.964C751.234 236.98 746.424 229.167 744.734 220.241C743.043 211.316 744.61 202.009 749.09 194.368C758.427 178.456 805.439 161.304 805.439 161.304C805.439 161.304 810.258 216.05 800.921 231.962Z" fill="#FE6150"/>
<path d="M789.568 125.301C785.081 132.936 778.052 138.277 770.024 140.152C761.996 142.026 753.627 140.28 746.757 135.297C739.887 130.313 735.078 122.501 733.387 113.577C731.695 104.653 733.26 95.3481 737.738 87.7066C747.076 71.7942 794.086 54.6421 794.086 54.6421C794.086 54.6421 798.906 109.389 789.568 125.301Z" fill="#FE6150"/>
<path d="M739.681 515.995C732.422 516.008 725.374 513.274 719.698 508.243C714.022 503.211 710.055 496.182 708.449 488.312C706.843 480.441 707.693 472.196 710.861 464.934C714.029 457.673 719.326 451.825 725.88 448.355C741.454 440.104 788.168 452.182 790.15 452.7L791.402 453.028L790.842 454.316C789.956 456.353 768.958 504.291 753.382 512.541C749.104 514.814 744.423 515.994 739.681 515.995V515.995ZM742.283 447.775C735.947 447.775 730.395 448.504 726.767 450.425C719.609 454.221 714.1 461.022 711.451 469.332C708.802 477.643 709.23 486.783 712.64 494.743C716.051 502.703 722.165 508.831 729.638 511.781C737.112 514.73 745.333 514.259 752.494 510.472C766.044 503.295 784.89 462.45 788.409 454.613C782.778 453.223 759.607 447.775 742.283 447.775V447.775Z" fill="#2F2E41"/>
<path d="M676.649 200.394C679.651 203.438 682.085 207.109 683.812 211.199C685.538 215.289 686.523 219.717 686.71 224.229C686.898 228.742 686.284 233.252 684.903 237.501C683.523 241.75 681.403 245.655 678.665 248.994C675.927 252.332 672.625 255.038 668.946 256.957C665.267 258.877 661.285 259.972 657.225 260.18C653.166 260.388 649.11 259.705 645.288 258.17C641.466 256.636 637.953 254.279 634.95 251.235C622.322 238.434 614.642 184.092 614.642 184.092C614.642 184.092 664.02 187.592 676.649 200.394Z" fill="#FE6150"/>
<path d="M604.415 344.878C610.479 351.025 614.098 359.599 614.477 368.713C614.855 377.828 611.961 386.735 606.431 393.477C600.902 400.219 593.19 404.243 584.992 404.664C576.794 405.084 568.782 401.867 562.718 395.719C550.09 382.918 542.409 328.576 542.409 328.576C542.409 328.576 591.787 332.076 604.415 344.878Z" fill="#FE6150"/>
<path d="M685.332 365.13C675.004 365.13 655.255 354.257 654.349 353.755L653.197 353.116L654.009 352.005C654.702 351.056 671.095 328.729 680.315 326.509C684.89 325.411 689.67 326.377 693.604 329.196C697.538 332.014 700.305 336.455 701.295 341.54C702.285 346.626 701.418 351.94 698.885 356.315C696.352 360.691 692.359 363.768 687.785 364.872C686.978 365.053 686.156 365.14 685.332 365.13V365.13ZM656.445 352.335C661.309 354.916 679.938 364.415 687.349 362.63C691.387 361.653 694.91 358.935 697.146 355.071C699.381 351.208 700.146 346.516 699.272 342.027C698.397 337.537 695.956 333.617 692.483 331.128C689.01 328.638 684.791 327.784 680.751 328.751C673.338 330.536 659.913 347.748 656.445 352.335V352.335Z" fill="#2F2E41"/>
</g>
<defs>
<clipPath id="clip0">
<rect width="840" height="926" fill="white"/>
</clipPath>
</defs>
</svg>
